<?xml version="1.0" ?><svg id="Layer_1" style="enable-background:new 0 0 256 256;" version="1.1" viewBox="0 0 256 256" xml:space="preserve" xmlns="http://www.w3.org/2000/svg" xmlns:xlink="http://www.w3.org/1999/xlink"><style type="text/css">
	.st0{fill:#E8E8E8;}
	.st1{fill:#005670;}
	.st2{fill:#FFAB80;}
	.st3{fill:#F09A79;}
	.st4{fill:#0F627F;}
	.st5{fill:#EA3B28;}
</style><g id="Layer_2"><path class="st0" d="M248,128c0,53.01001-34.380005,97.98999-82.049988,113.880005C154.02002,245.849976,141.26001,248,128,248   c-8.52002,0-16.840027-0.890015-24.859985-2.590027C48.799988,233.969971,8,185.75,8,128C8,61.72998,61.72998,8,128,8   S248,61.72998,248,128z"/></g><g><g><path class="st1" d="M165.950012,207.109985v34.77002C154.02002,245.849976,141.26001,248,128,248    c-8.52002,0-16.840027-0.890015-24.859985-2.590027v-38.299988H165.950012z"/></g><g><path class="st2" d="M175.5,66.820007v67.342178c-0.009369,0.149796-0.018738,0.290146-0.018738,0.439926    c-0.159042,10.632492-4.099503,20.712784-10.894455,28.546738c-1.553848,1.787659-2.442963,4.04335-2.442963,6.411285v10.857162    h-52.947182v-7.618713c-2.002907-1.179321-3.734467-2.602005-5.344284-4.136932    c-2.162064-1.647293-4.183769-3.491165-6.018211-5.53154c-0.196571-0.205887-0.374397-0.421188-0.561607-0.636444    c-2.012276-2.321167-3.790619-4.885681-5.316238-7.646774l-0.009369-0.009369    c-0.739388-1.132523-15.349693-23.838898-15.349693-23.838898l-12.803902-19.514694    c-2.630043-4.501961-1.123154-10.27681,3.378799-12.906853c4.492592-2.620667,10.27681-1.113792,12.906853,3.378807    l14.441833,19.130997c0.439934,0.589653,1.216797,0.804916,1.900024,0.533501    c0.57093-0.233986,0.954697-0.767487,1.010849-1.366516V48.802807c0-3.865509,2.480255-7.150734,5.933952-8.33942    c0.907913-0.308884,1.871918-0.477348,2.882774-0.477348c4.866997,0,8.816711,3.949772,8.816711,8.816769v43.990055    c0,0.692604,0.561607,1.254166,1.254211,1.254166c0.692596,0,1.254158-0.561562,1.254158-1.254166V42.110683    c0-4.866993,3.949776-8.816711,8.816765-8.816711c4.866943,0,8.816711,3.949718,8.816711,8.816711V93.06427    c0,0.664551,0.533508,1.216736,1.207367,1.254211c0.664505,0.028053,1.244904-0.477348,1.300995-1.151268V52.705734    c0-4.876358,3.949722-8.816711,8.816772-8.816711c4.876312,0,8.816666,3.949718,8.816666,8.816711v43.933899    c0,0.692604,0.561661,1.254158,1.254257,1.254158c0.692612,0,1.263412-0.561554,1.254166-1.254158V66.820007    c0-4.866989,3.949707-8.816765,8.816757-8.816765C171.550278,58.003242,175.5,61.953018,175.5,66.820007z"/></g><g><path class="st3" d="M175.5,66.820007v67.342178c-0.009369,0.149796-0.018738,0.290146-0.018738,0.439926    c-0.159042,10.632492-4.099503,20.712784-10.894455,28.546738c-1.553848,1.787659-2.442963,4.04335-2.442963,6.411285v10.857162    h-2.807877v-12.72908c0-2.367935,0.88913-4.623627,2.442963-6.411285c6.794952-7.833969,10.735413-17.914261,10.894455-28.546738    c0-0.14978,0.009369-0.290146,0.018738-0.439941V64.94809c0-2.452206-1.001541-4.670479-2.620728-6.261559    C173.263046,60.015575,175.5,63.151016,175.5,66.820007z"/></g><g><path class="st4" d="M171.456589,182.242386v24.765488c0,1.010849-0.814163,1.825134-1.834442,1.825134H99.46273    c-1.010857,0-1.834503-0.814285-1.834503-1.825134v-24.765488c0-1.010788,0.823639-1.825073,1.834503-1.825073h70.159416    C170.642426,180.417313,171.456589,181.231598,171.456589,182.242386z"/></g><g><circle class="st5" cx="111.092163" cy="194.625153" r="5.098526"/></g></g></svg>