<?xml version="1.0" encoding="utf-8"?>
<!-- Svg Vector Icons : http://www.onlinewebfonts.com/icon -->
<!DOCTYPE svg PUBLIC "-//W3C//DTD SVG 1.1//EN" "http://www.w3.org/Graphics/SVG/1.1/DTD/svg11.dtd">
<svg version="1.1" xmlns="http://www.w3.org/2000/svg" xmlns:xlink="http://www.w3.org/1999/xlink" x="0px" y="0px" viewBox="0 0 1000 1000" enable-background="new 0 0 1000 1000" xml:space="preserve">
<metadata> Svg Vector Icons : http://www.onlinewebfonts.com/icon </metadata>
<g><g><g><path d="M10,500.6c0,88.4,66.2,161.8,153.1,176l30.6,2.4h170.7v-88.8H195.9l-20.3-1.6c-58.7-9.4-76.5-44.9-79-91.4c-2.4-44.4,39.6-84,112.8-109.3c0,0-54.1-72,0-117.3c54.1-45.3,132.2,39.4,132.2,39.4s97.9-186,243.4-172.4c219.6,20.6,202.3,263.6,202.3,263.6s114.3,19.6,114.3,96c0,85.3-97.3,93-97.3,93H636.7V679h169.5l30.6-2.4c87-14.2,153.1-87.5,153.1-176c0-77.7-51.1-143.8-122.5-168.3C864.9,178.5,735.6,54.5,576.6,54.5c-114.7,0-213.9,64.5-261.3,158.1c-22.4-24.1-54.8-39.2-90.9-39.2c-67.7,0-122.5,53.3-122.5,118.9c0,17.1,3.7,33.5,10.4,48.2C51.7,369.7,10,430.5,10,500.6z"/><polygon points="455.5,321.8 455.5,830.5 277.3,722.7 277.3,811.8 500,945.5 722.7,811.8 722.7,722.7 544.5,830.5 544.5,321.8 "/></g></g><g></g><g></g><g></g><g></g><g></g><g></g><g></g><g></g><g></g><g></g><g></g><g></g><g></g><g></g><g></g></g>
</svg>